<svg width="358" height="162" viewBox="0 0 358 162" fill="none" xmlns="http://www.w3.org/2000/svg">
<path d="M338.064 9.2615e-07H151.809C150.635 -0.000670361 149.49 0.363593 148.533 1.0422C147.576 1.72081 146.854 2.68007 146.469 3.78677C145.682 6.05234 144.208 8.017 142.252 9.40751C140.295 10.798 137.953 11.5452 135.551 11.5452C133.149 11.5452 130.807 10.798 128.851 9.40751C126.894 8.017 125.42 6.05234 124.634 3.78677C124.248 2.68424 123.53 1.72811 122.578 1.04996C121.625 0.37182 120.486 0.00500426 119.316 9.2615e-07H19.9508C19.9508 2.61531 19.4347 5.205 18.432 7.62118C17.4294 10.0374 15.9597 12.2327 14.1071 14.0818C12.2545 15.931 10.0551 17.3977 7.63455 18.3982C5.21403 19.3987 2.6198 19.9134 0 19.9129V142.087C2.6198 142.087 5.21403 142.601 7.63455 143.602C10.0551 144.602 12.2545 146.069 14.1071 147.918C15.9597 149.767 17.4294 151.963 18.432 154.379C19.4347 156.795 19.9508 159.385 19.9508 162H119.316C120.49 162.001 121.635 161.637 122.592 160.958C123.549 160.28 124.271 159.32 124.656 158.213C125.442 155.948 126.916 153.983 128.873 152.592C130.83 151.202 133.172 150.455 135.573 150.455C137.975 150.455 140.317 151.202 142.274 152.592C144.231 153.983 145.705 155.948 146.491 158.213C146.876 159.316 147.594 160.273 148.547 160.951C149.499 161.629 150.639 161.996 151.809 162H338.053C338.053 159.385 338.569 156.796 339.571 154.38C340.574 151.964 342.043 149.769 343.895 147.919C345.748 146.07 347.946 144.604 350.367 143.603C352.787 142.602 355.381 142.087 358 142.087V19.9129C352.712 19.9099 347.641 17.8107 343.902 14.0766C340.164 10.3425 338.064 5.27931 338.064 9.2615e-07ZM134.604 17.3194C134.596 17.188 134.615 17.0563 134.659 16.9325C134.704 16.8087 134.774 16.6953 134.864 16.5994C134.954 16.5034 135.063 16.427 135.185 16.3747C135.306 16.3225 135.436 16.2955 135.568 16.2955C135.7 16.2955 135.83 16.3225 135.951 16.3747C136.072 16.427 136.181 16.5034 136.272 16.5994C136.362 16.6953 136.432 16.8087 136.477 16.9325C136.521 17.0563 136.54 17.188 136.532 17.3194V28.4802C136.54 28.6116 136.521 28.7433 136.477 28.8671C136.432 28.991 136.362 29.1043 136.272 29.2003C136.181 29.2962 136.072 29.3727 135.951 29.4249C135.83 29.4772 135.7 29.5041 135.568 29.5041C135.436 29.5041 135.306 29.4772 135.185 29.4249C135.063 29.3727 134.954 29.2962 134.864 29.2003C134.774 29.1043 134.704 28.991 134.659 28.8671C134.615 28.7433 134.596 28.6116 134.604 28.4802V17.3194ZM134.604 36.4343C134.596 36.3029 134.615 36.1712 134.659 36.0474C134.704 35.9236 134.774 35.8102 134.864 35.7143C134.954 35.6183 135.063 35.5419 135.185 35.4896C135.306 35.4374 135.436 35.4104 135.568 35.4104C135.7 35.4104 135.83 35.4374 135.951 35.4896C136.072 35.5419 136.181 35.6183 136.272 35.7143C136.362 35.8102 136.432 35.9236 136.477 36.0474C136.521 36.1712 136.54 36.3029 136.532 36.4343V47.5951C136.532 47.7853 136.476 47.9712 136.37 48.1294C136.264 48.2875 136.114 48.4108 135.938 48.4836C135.762 48.5564 135.569 48.5754 135.382 48.5383C135.195 48.5011 135.023 48.4095 134.889 48.2749C134.798 48.1864 134.726 48.0806 134.677 47.9638C134.628 47.8471 134.603 47.7217 134.604 47.5951V36.4343ZM134.604 55.5492C134.596 55.4178 134.615 55.2861 134.659 55.1623C134.704 55.0384 134.774 54.9251 134.864 54.8291C134.954 54.7332 135.063 54.6568 135.185 54.6045C135.306 54.5523 135.436 54.5253 135.568 54.5253C135.7 54.5253 135.83 54.5523 135.951 54.6045C136.072 54.6568 136.181 54.7332 136.272 54.8291C136.362 54.9251 136.432 55.0384 136.477 55.1623C136.521 55.2861 136.54 55.4178 136.532 55.5492V66.71C136.532 66.9002 136.476 67.0861 136.37 67.2443C136.264 67.4024 136.114 67.5257 135.938 67.5985C135.762 67.6713 135.569 67.6903 135.382 67.6532C135.195 67.616 135.023 67.5243 134.889 67.3898C134.798 67.3013 134.726 67.1955 134.677 67.0788C134.628 66.962 134.603 66.8366 134.604 66.71V55.5492ZM134.604 74.6641C134.604 74.4084 134.706 74.1631 134.887 73.9823C135.068 73.8014 135.314 73.6998 135.57 73.6998C135.697 73.6994 135.822 73.7243 135.939 73.7731C136.056 73.822 136.162 73.8938 136.251 73.9843C136.34 74.0735 136.411 74.1795 136.459 74.2962C136.508 74.4128 136.532 74.5379 136.532 74.6641V85.8249C136.531 86.0794 136.429 86.3231 136.249 86.503C136.069 86.683 135.825 86.7845 135.57 86.7855C135.315 86.7835 135.071 86.6818 134.89 86.5022C134.71 86.3226 134.607 86.0794 134.604 85.8249V74.6641ZM134.604 93.779C134.596 93.6476 134.615 93.5159 134.659 93.3921C134.704 93.2682 134.774 93.1548 134.864 93.0589C134.954 92.963 135.063 92.8865 135.185 92.8343C135.306 92.782 135.436 92.7551 135.568 92.7551C135.7 92.7551 135.83 92.782 135.951 92.8343C136.072 92.8865 136.181 92.963 136.272 93.0589C136.362 93.1548 136.432 93.2682 136.477 93.3921C136.521 93.5159 136.54 93.6476 136.532 93.779V104.94C136.532 105.13 136.476 105.316 136.37 105.474C136.264 105.632 136.114 105.756 135.938 105.828C135.762 105.901 135.569 105.92 135.382 105.883C135.195 105.846 135.023 105.754 134.889 105.62C134.798 105.531 134.726 105.425 134.677 105.309C134.628 105.192 134.603 105.066 134.604 104.94V93.779ZM136.532 143.166C136.532 143.421 136.431 143.666 136.25 143.846C136.07 144.027 135.825 144.129 135.57 144.13C135.314 144.128 135.07 144.026 134.889 143.846C134.708 143.665 134.606 143.421 134.604 143.166V132.005C134.596 131.874 134.615 131.742 134.659 131.618C134.704 131.494 134.774 131.381 134.864 131.285C134.954 131.189 135.063 131.113 135.185 131.06C135.306 131.008 135.436 130.981 135.568 130.981C135.7 130.981 135.83 131.008 135.951 131.06C136.072 131.113 136.181 131.189 136.272 131.285C136.362 131.381 136.432 131.494 136.477 131.618C136.521 131.742 136.54 131.874 136.532 132.005V143.166ZM136.532 124.055C136.532 124.245 136.476 124.431 136.37 124.589C136.264 124.747 136.114 124.87 135.938 124.943C135.762 125.016 135.569 125.035 135.382 124.998C135.195 124.961 135.023 124.869 134.889 124.734L134.859 124.705C134.696 124.528 134.605 124.296 134.604 124.055V112.894C134.604 112.703 134.661 112.517 134.766 112.359C134.872 112.201 135.023 112.077 135.199 112.004C135.375 111.931 135.569 111.911 135.756 111.948C135.943 111.985 136.115 112.076 136.251 112.21C136.418 112.378 136.517 112.602 136.528 112.838C136.53 112.857 136.53 112.875 136.528 112.894L136.532 124.055Z" fill="#6341A9"/>
</svg>
